PathFileType	4	(X/Y/Z)	 2.2Hzhigh3min.trc
DataRate	CameraRate	NumFrames	NumMarkers	Units	OrigDataRate	OrigDataStartFrame	OrigNumFrames
200	200	10	35	m	200	626	1000
Frame#	Time	C7			LSH			RSH			MAN			RASI			LASI			HIPR			HIPL			RPSI			LPSI			COX			RTHI1			RTHI2			RTHI3			RTHI4			RSHA1			RSHA2			RSHA3			RSHA4			RHEEL			RMET5			RMET1			RTOE			LTHI1			LTHI2			LTHI3			LTHI4			LSHA1			LSHA2			LSHA3			LSHA4			LHEEL			LMET5			LMET1			LTOE			
		X1	Y1	Z1	X2	Y2	Z2	X3	Y3	Z3	X4	Y4	Z4	X5	Y5	Z5	X6	Y6	Z6	X7	Y7	Z7	X8	Y8	Z8	X9	Y9	Z9	X10	Y10	Z10	X11	Y11	Z11	X12	Y12	Z12	X13	Y13	Z13	X14	Y14	Z14	X15	Y15	Z15	X16	Y16	Z16	X17	Y17	Z17	X18	Y18	Z18	X19	Y19	Z19	X20	Y20	Z20	X21	Y21	Z21	X22	Y22	Z22	X23	Y23	Z23	X24	Y24	Z24	X25	Y25	Z25	X26	Y26	Z26	X27	Y27	Z27	X28	Y28	Z28	X29	Y29	Z29	X30	Y30	Z30	X31	Y31	Z31	X32	Y32	Z32	X33	Y33	Z33	X34	Y34	Z34	X35	Y35	Z35	
626	3.1300	-0.278939	1.434031	-0.537271	-0.211702	1.444875	-0.706996	-0.224717	1.423471	-0.373483	-0.146764	1.396630	-0.536935	-0.108926	1.000353	-0.427829	-0.107940	1.001816	-0.648676	-0.168058	1.054346	-0.402405	-0.166270	1.046679	-0.679958	-0.266199	1.029277	-0.486603	-0.269184	1.027853	-0.592742	-0.269505	1.036058	-0.535977	-0.186717	0.793611	-0.370095	-0.165825	0.737836	-0.370523	-0.104238	0.758887	-0.369255	-0.118779	0.818472	-0.369344	-0.187616	0.418214	-0.368733	-0.205348	0.378753	-0.372746	-0.135725	0.399962	-0.385009	-0.148159	0.361379	-0.384945	-0.308051	0.156622	-0.432841	-0.197358	0.043647	-0.384967	-0.170543	0.039820	-0.452578	-0.149214	0.029082	-0.446351	-0.178091	0.788841	-0.717163	-0.150448	0.734003	-0.713034	-0.090946	0.758201	-0.707093	-0.109757	0.815625	-0.710647	-0.199831	0.383434	-0.712226	-0.216597	0.346577	-0.710886	-0.157993	0.327878	-0.697441	-0.148370	0.370828	-0.701496	-0.319946	0.141472	-0.661325	-0.194140	0.048543	-0.704111	-0.166785	0.043118	-0.639069	-0.145471	0.028630	-0.637842	
627	3.1350	-0.278470	1.428221	-0.537433	-0.211481	1.438622	-0.707186	-0.224458	1.417408	-0.373336	-0.146219	1.390231	-0.537115	-0.109291	0.994452	-0.427700	-0.108458	0.996042	-0.648474	-0.168360	1.048351	-0.402125	-0.166848	1.040745	-0.679796	-0.266620	1.023252	-0.486318	-0.269730	1.021853	-0.592489	-0.269927	1.030006	-0.535691	-0.186348	0.787195	-0.370228	-0.165126	0.731527	-0.370695	-0.103667	0.752980	-0.369469	-0.118614	0.812496	-0.369601	-0.186297	0.412838	-0.368567	-0.204529	0.373613	-0.372704	-0.134702	0.393995	-0.385126	-0.147610	0.355591	-0.385201	-0.311094	0.152327	-0.432387	-0.198547	0.041193	-0.384400	-0.171780	0.038224	-0.452861	-0.149850	0.028517	-0.446752	-0.177890	0.782541	-0.716842	-0.149944	0.727852	-0.712602	-0.090593	0.752413	-0.706501	-0.109735	0.809726	-0.710078	-0.198757	0.378271	-0.712491	-0.215856	0.341567	-0.711248	-0.157522	0.322340	-0.697412	-0.147487	0.365214	-0.701419	-0.322215	0.137094	-0.661753	-0.195499	0.045339	-0.704681	-0.168421	0.040808	-0.638900	-0.146692	0.027467	-0.637520	
628	3.1400	-0.277975	1.422070	-0.537622	-0.211257	1.432173	-0.707371	-0.224247	1.411129	-0.373173	-0.145628	1.383578	-0.537299	-0.109670	0.988342	-0.427556	-0.108989	0.990070	-0.648281	-0.168676	1.042129	-0.401820	-0.167445	1.034544	-0.679657	-0.267101	1.017004	-0.486021	-0.270330	1.015609	-0.592233	-0.270379	1.023721	-0.535409	-0.185975	0.780566	-0.370406	-0.164418	0.725008	-0.370874	-0.103089	0.746860	-0.369630	-0.118437	0.806299	-0.369820	-0.184968	0.407293	-0.368375	-0.203742	0.368328	-0.372665	-0.133698	0.387821	-0.385260	-0.147129	0.349630	-0.385508	-0.314429	0.148150	-0.431766	-0.199542	0.039354	-0.383851	-0.172812	0.037191	-0.453092	-0.150258	0.028232	-0.447107	-0.177737	0.776041	-0.716515	-0.149499	0.721492	-0.712215	-0.090296	0.746391	-0.705936	-0.109754	0.803607	-0.709506	-0.197814	0.373013	-0.712754	-0.215279	0.336477	-0.711632	-0.157242	0.316653	-0.697457	-0.146752	0.359441	-0.701375	-0.324788	0.132683	-0.662291	-0.196693	0.042790	-0.705257	-0.169776	0.039115	-0.638828	-0.147604	0.026804	-0.637265	
629	3.1450	-0.277581	1.415900	-0.537765	-0.211020	1.425546	-0.707543	-0.223997	1.404663	-0.373030	-0.145031	1.376705	-0.537478	-0.110071	0.982039	-0.427381	-0.109530	0.983911	-0.648111	-0.169023	1.035690	-0.401480	-0.168061	1.028092	-0.679549	-0.267659	1.010542	-0.485716	-0.270996	1.009124	-0.591975	-0.270871	1.017224	-0.535131	-0.185596	0.773738	-0.370645	-0.163696	0.718295	-0.371055	-0.102513	0.740532	-0.369691	-0.118234	0.799881	-0.369948	-0.183606	0.401616	-0.368131	-0.202964	0.362943	-0.372606	-0.132704	0.381486	-0.385425	-0.146690	0.343551	-0.385893	-0.317916	0.144176	-0.431029	-0.200453	0.038054	-0.383350	-0.173712	0.036592	-0.453204	-0.150544	0.028066	-0.447330	-0.177629	0.769361	-0.716183	-0.149104	0.714946	-0.711897	-0.090042	0.740161	-0.705472	-0.109806	0.797290	-0.708983	-0.197013	0.367714	-0.712994	-0.214896	0.331368	-0.712009	-0.157193	0.310852	-0.697542	-0.146182	0.353535	-0.701349	-0.327599	0.128391	-0.662934	-0.197795	0.040900	-0.705773	-0.170898	0.037969	-0.638850	-0.148268	0.026463	-0.637097	
630	3.1500	-0.277307	1.409530	-0.537881	-0.210769	1.418771	-0.707697	-0.223703	1.398034	-0.372909	-0.144513	1.369695	-0.537625	-0.110498	0.975559	-0.427162	-0.110088	0.977587	-0.647971	-0.169415	1.029041	-0.401101	-0.168708	1.021403	-0.679480	-0.268313	1.003866	-0.485395	-0.271740	1.002409	-0.591712	-0.271422	1.010522	-0.534852	-0.185214	0.766728	-0.370900	-0.162968	0.711403	-0.371229	-0.101936	0.734040	-0.369626	-0.118008	0.793273	-0.369943	-0.182190	0.395870	-0.367851	-0.202148	0.357529	-0.372521	-0.131683	0.375082	-0.385617	-0.146253	0.337440	-0.386344	-0.321398	0.140458	-0.430210	-0.201367	0.037147	-0.382951	-0.174528	0.036291	-0.453202	-0.150783	0.027980	-0.447445	-0.177562	0.762519	-0.715843	-0.148746	0.708241	-0.711667	-0.089819	0.733745	-0.705185	-0.109888	0.790800	-0.708567	-0.196340	0.362429	-0.713193	-0.214698	0.326308	-0.712340	-0.157367	0.304989	-0.697646	-0.145761	0.347547	-0.701328	-0.330544	0.124324	-0.663648	-0.198893	0.039534	-0.706208	-0.171812	0.037275	-0.638985	-0.148734	0.026253	-0.637035	
631	3.1550	-0.277036	1.402785	-0.538082	-0.210506	1.411886	-0.707837	-0.223359	1.391270	-0.372810	-0.144040	1.362555	-0.537746	-0.110965	0.968940	-0.426898	-0.110669	0.971115	-0.647877	-0.169846	1.022195	-0.400681	-0.169393	1.014503	-0.679454	-0.269085	0.996982	-0.485063	-0.272572	0.995475	-0.591448	-0.272044	1.003648	-0.534566	-0.184847	0.759562	-0.371154	-0.162228	0.704385	-0.371376	-0.101356	0.727424	-0.369433	-0.117790	0.786526	-0.369794	-0.180678	0.390149	-0.367532	-0.201236	0.352173	-0.372381	-0.130593	0.368718	-0.385834	-0.145754	0.331399	-0.386838	-0.324678	0.136963	-0.429501	-0.202346	0.036431	-0.382605	-0.175282	0.036190	-0.453141	-0.150993	0.027924	-0.447478	-0.177520	0.755534	-0.715466	-0.148407	0.701396	-0.711534	-0.089600	0.727189	-0.705145	-0.109978	0.784157	-0.708338	-0.195750	0.357195	-0.713338	-0.214632	0.321342	-0.712605	-0.157699	0.299126	-0.697759	-0.145438	0.341539	-0.701307	-0.333490	0.120520	-0.664396	-0.200033	0.038506	-0.706595	-0.172574	0.036901	-0.639206	-0.149069	0.026134	-0.637037	
632	3.1600	-0.276589	1.396230	-0.538499	-0.210244	1.404925	-0.707978	-0.222965	1.384404	-0.372727	-0.143580	1.355313	-0.537846	-0.111475	0.962220	-0.426572	-0.111276	0.964535	-0.647835	-0.170331	1.015174	-0.400206	-0.170125	1.007413	-0.679473	-0.269989	0.989903	-0.484722	-0.273500	0.988343	-0.591183	-0.272764	0.996618	-0.534269	-0.184513	0.752291	-0.371344	-0.161493	0.697295	-0.371487	-0.100799	0.720753	-0.369135	-0.117614	0.779709	-0.369492	-0.179026	0.384554	-0.367180	-0.200180	0.346937	-0.372172	-0.129387	0.362528	-0.386077	-0.145125	0.325508	-0.387344	-0.327721	0.133644	-0.428840	-0.203339	0.035774	-0.382249	-0.175942	0.036193	-0.453032	-0.151145	0.027884	-0.447453	-0.177494	0.748441	-0.715082	-0.148062	0.694453	-0.711495	-0.089370	0.720533	-0.705376	-0.110065	0.777418	-0.708330	-0.195157	0.352048	-0.713435	-0.214600	0.316501	-0.712802	-0.158072	0.293352	-0.697854	-0.145133	0.335592	-0.701282	-0.336315	0.116942	-0.665112	-0.201199	0.037659	-0.706964	-0.173239	0.036735	-0.639464	-0.149311	0.026069	-0.637069	
633	3.1650	-0.276369	1.389378	-0.538786	-0.210002	1.397928	-0.708141	-0.222525	1.377470	-0.372645	-0.143091	1.347996	-0.537938	-0.112050	0.955438	-0.426178	-0.111918	0.957877	-0.647850	-0.170890	1.007998	-0.399672	-0.170912	1.000175	-0.679542	-0.271034	0.982652	-0.484374	-0.274526	0.981035	-0.590915	-0.273598	0.989485	-0.533957	-0.184242	0.745016	-0.371423	-0.160783	0.690222	-0.371526	-0.100291	0.714144	-0.368750	-0.117520	0.772923	-0.369050	-0.177226	0.379152	-0.366814	-0.198931	0.341899	-0.371879	-0.128045	0.356596	-0.386324	-0.144320	0.319850	-0.387816	-0.330450	0.130435	-0.428187	-0.204261	0.035118	-0.381859	-0.176469	0.036228	-0.452905	-0.151210	0.027845	-0.447423	-0.177463	0.741285	-0.714726	-0.147703	0.687452	-0.711541	-0.089114	0.713827	-0.705859	-0.110136	0.770617	-0.708527	-0.194487	0.347019	-0.713514	-0.214486	0.311785	-0.712951	-0.158363	0.287730	-0.697903	-0.144752	0.329787	-0.701241	-0.338951	0.113507	-0.665718	-0.202331	0.036897	-0.707343	-0.173812	0.036685	-0.639738	-0.149467	0.026034	-0.637110	
634	3.1700	-0.276168	1.382157	-0.539056	-0.209807	1.390944	-0.708349	-0.222082	1.370510	-0.372532	-0.142553	1.340658	-0.538033	-0.112684	0.948653	-0.425700	-0.112599	0.951185	-0.647931	-0.171547	1.000686	-0.399071	-0.171771	0.992815	-0.679659	-0.272224	0.975244	-0.484025	-0.275649	0.973593	-0.590634	-0.274559	0.982278	-0.533627	-0.184065	0.737863	-0.371375	-0.160128	0.683301	-0.371491	-0.099861	0.707731	-0.368317	-0.117560	0.766319	-0.368528	-0.175291	0.374013	-0.366452	-0.197502	0.337129	-0.371499	-0.126566	0.350991	-0.386572	-0.143343	0.314478	-0.388222	-0.332853	0.127336	-0.427578	-0.205062	0.034460	-0.381439	-0.176855	0.036276	-0.452781	-0.151186	0.027800	-0.447414	-0.177419	0.734123	-0.714445	-0.147331	0.680447	-0.711660	-0.088841	0.707119	-0.706517	-0.110191	0.763808	-0.708899	-0.193672	0.342123	-0.713596	-0.214189	0.307206	-0.713076	-0.158453	0.282328	-0.697889	-0.144222	0.324210	-0.701170	-0.341361	0.110156	-0.666171	-0.203357	0.036166	-0.707733	-0.174263	0.036688	-0.640019	-0.149530	0.026016	-0.637148	
635	3.1750	-0.276093	1.375271	-0.539290	-0.209691	1.384034	-0.708622	-0.221681	1.363596	-0.372347	-0.141923	1.333351	-0.538146	-0.113372	0.941938	-0.425133	-0.113316	0.944520	-0.648081	-0.172312	0.993274	-0.398410	-0.172716	0.985385	-0.679818	-0.273543	0.967734	-0.483698	-0.276848	0.966063	-0.590339	-0.275611	0.975098	-0.533290	-0.184003	0.731004	-0.371210	-0.159555	0.676684	-0.371384	-0.099539	0.701643	-0.367865	-0.117747	0.760040	-0.367968	-0.173268	0.369175	-0.366084	-0.195942	0.332640	-0.371053	-0.125001	0.345717	-0.386811	-0.142238	0.309420	-0.388559	-0.334957	0.124383	-0.427040	-0.205746	0.033816	-0.380978	-0.177134	0.036336	-0.452659	-0.151104	0.027750	-0.447416	-0.177370	0.727057	-0.714276	-0.146969	0.673539	-0.711841	-0.088572	0.700509	-0.707256	-0.110245	0.757082	-0.709390	-0.192679	0.337379	-0.713691	-0.213652	0.302752	-0.713196	-0.158275	0.277197	-0.697795	-0.143505	0.318910	-0.701051	-0.343533	0.106888	-0.666442	-0.204248	0.035473	-0.708119	-0.174599	0.036698	-0.640282	-0.149521	0.026009	-0.637174	
